<svg width="378" height="112" viewBox="0 0 378 112" fill="none" xmlns="http://www.w3.org/2000/svg">
<g clip-path="url(#clip0_8997_31923)">
<path d="M375.493 98.7739C375.493 104.7 370.691 109.5 364.752 109.5H13.2484C7.31202 109.5 2.49365 104.7 2.49365 98.7739V13.2372C2.49365 7.31411 7.31226 2.49719 13.2484 2.49719H364.749C370.691 2.49719 375.49 7.31411 375.49 13.2372L375.493 98.7739Z" fill="white"/>
<path d="M364.752 111.997H13.2484C5.94481 111.997 0 106.068 0 98.7753V13.2414C0 5.94323 5.94481 0.00610352 13.2484 0.00610352H364.749C372.044 0.00610352 377.997 5.94323 377.997 13.2414V98.7753C378.003 106.068 372.049 111.997 364.752 111.997Z" fill="#A6A6A6"/>
<path d="M375.493 98.7739C375.493 104.7 370.691 109.5 364.752 109.5H13.2484C7.31202 109.5 2.49365 104.7 2.49365 98.7739V13.2372C2.49365 7.31411 7.31226 2.49719 13.2484 2.49719H364.749C370.691 2.49719 375.49 7.31411 375.49 13.2372L375.493 98.7739Z" fill="black"/>
<path d="M84.4041 55.4105C84.3229 46.3844 91.7973 41.9931 92.1391 41.7887C87.906 35.6191 81.3451 34.7762 79.0395 34.7089C73.5289 34.1292 68.1836 38.0052 65.3765 38.0052C62.5133 38.0052 58.1906 34.765 53.5317 34.8602C47.5364 34.9526 41.928 38.4224 38.8517 43.8107C32.5037 54.7972 37.2381 70.9422 43.3204 79.8227C46.3626 84.1748 49.918 89.0281 54.571 88.8572C59.1235 88.6724 60.824 85.9587 66.3178 85.9587C71.7609 85.9587 73.358 88.8572 78.1035 88.748C82.9896 88.6724 86.0654 84.3792 89.0017 79.9908C92.5176 75.0086 93.9293 70.0965 93.9855 69.8444C93.8733 69.8052 84.4994 66.2261 84.4041 55.4105ZM75.4393 28.867C77.8876 25.806 79.5631 21.6417 79.0981 17.4156C75.5539 17.5725 71.1222 19.8661 68.5697 22.8599C66.3117 25.498 64.2946 29.822 64.8157 33.8884C68.7969 34.1852 72.8843 31.8804 75.4393 28.867Z" fill="white"/>
<path d="M150.343 88.2327H143.981L140.496 77.2854H128.382L125.062 88.2327H118.868L130.873 50.9632H138.285L150.343 88.2327ZM139.446 72.6925L136.294 62.9607C135.96 61.9665 135.333 59.6253 134.414 55.9398H134.302C133.932 57.5249 133.341 59.8661 132.531 62.9607L129.433 72.6925H139.446ZM181.154 74.4653C181.154 79.0358 179.913 82.6484 177.428 85.3008C175.204 87.6614 172.439 88.8407 169.141 88.8407C165.581 88.8407 163.02 87.5718 161.465 85.0291V99.1298H155.492V70.1917C155.492 67.3209 155.417 64.3778 155.271 61.3588H160.524L160.857 65.6184H160.969C162.961 62.409 165.984 60.8041 170.041 60.8041C173.212 60.8041 175.859 62.0559 177.977 64.5624C180.092 67.0747 181.154 70.3737 181.154 74.4653ZM175.069 74.6837C175.069 72.068 174.481 69.9116 173.299 68.2117C172.007 66.4446 170.273 65.5598 168.099 65.5598C166.626 65.5598 165.286 66.0525 164.09 67.0243C162.891 68.0045 162.107 69.2843 161.74 70.8694C161.555 71.6087 161.463 72.2109 161.463 72.6872V77.1706C161.463 79.1226 162.062 80.7723 163.261 82.1222C164.46 83.4664 166.018 84.1411 167.934 84.1411C170.184 84.1411 171.935 83.2704 173.187 81.5422C174.442 79.8087 175.069 77.5235 175.069 74.6837ZM212.075 74.4653C212.075 79.0358 210.833 82.6484 208.348 85.3008C206.121 87.6614 203.359 88.8407 200.059 88.8407C196.498 88.8407 193.938 87.5718 192.383 85.0291V99.1298H186.41V70.1917C186.41 67.3209 186.334 64.3778 186.189 61.3588H191.441L191.775 65.6184H191.887C193.876 62.409 196.899 60.8041 200.958 60.8041C204.126 60.8041 206.774 62.0559 208.898 64.5624C211.01 67.0747 212.075 70.3737 212.075 74.4653ZM205.987 74.6837C205.987 72.068 205.396 69.9116 204.213 68.2117C202.922 66.4446 201.193 65.5598 199.019 65.5598C197.546 65.5598 196.207 66.0525 195.005 67.0243C193.806 68.0045 193.024 69.2843 192.657 70.8694C192.475 71.6087 192.377 72.2109 192.377 72.6872V77.1706C192.377 79.1226 192.979 80.7723 194.173 82.1222C195.372 83.4636 196.93 84.1411 198.851 84.1411C201.104 84.1411 202.854 83.2704 204.104 81.5422C205.359 79.8087 205.987 77.5235 205.987 74.6837ZM246.645 77.7783C246.645 80.9513 245.536 83.5306 243.331 85.5218C240.905 87.695 237.518 88.7844 233.176 88.7844C229.164 88.7844 225.948 88.0115 223.521 86.4628L224.903 81.4862C227.522 83.0377 230.399 83.8107 233.531 83.8107C235.784 83.8107 237.535 83.301 238.784 82.29C240.036 81.2762 240.67 79.9207 240.67 78.2292C240.67 76.7143 240.146 75.4455 239.118 74.4123C238.084 73.3817 236.375 72.4211 233.974 71.539C227.446 69.1053 224.18 65.5458 224.18 60.8633C224.18 57.8052 225.334 55.3015 227.637 53.3439C229.94 51.3891 232.994 50.412 236.792 50.412C240.185 50.412 243.012 51.0029 245.256 52.1819L243.757 57.049C241.645 55.9064 239.26 55.3351 236.593 55.3351C234.487 55.3351 232.834 55.8532 231.651 56.8838C230.657 57.8052 230.153 58.9284 230.153 60.2612C230.153 61.7317 230.727 62.9528 231.87 63.9105C232.862 64.7925 234.672 65.7533 237.288 66.7839C240.499 68.0777 242.857 69.5844 244.368 71.3152C245.889 73.0454 246.645 75.2046 246.645 77.7783ZM266.444 65.8397H259.86V78.8873C259.86 82.206 261.02 83.8611 263.345 83.8611C264.412 83.8611 265.298 83.7712 265.998 83.5838L266.163 88.1179C264.987 88.5578 263.437 88.7788 261.518 88.7788C259.16 88.7788 257.316 88.0591 255.985 86.6196C254.66 85.1801 253.994 82.7689 253.994 79.3746V65.8284H250.071V61.3476H253.994V56.4271L259.86 54.6571V61.3476H266.444V65.8397ZM296.089 74.5745C296.089 78.7051 294.907 82.0965 292.548 84.7488C290.08 87.4794 286.796 88.8404 282.703 88.8404C278.753 88.8404 275.613 87.5326 273.271 84.9197C270.929 82.3009 269.758 79.0021 269.758 75.0226C269.758 70.858 270.968 67.4472 273.38 64.795C275.798 62.1401 279.053 60.8129 283.146 60.8129C287.091 60.8129 290.259 62.1233 292.657 64.739C294.949 67.2763 296.089 70.5529 296.089 74.5745ZM289.898 74.7117C289.898 72.2498 289.366 70.1382 288.298 68.3711C287.046 66.2371 285.253 65.1703 282.93 65.1703C280.538 65.1703 278.703 66.2371 277.453 68.3711C276.383 70.1382 275.851 72.2862 275.851 74.8235C275.851 77.2882 276.383 79.4052 277.453 81.167C278.745 83.301 280.546 84.368 282.88 84.368C285.163 84.368 286.953 83.2786 288.248 81.1138C289.346 79.3046 289.898 77.179 289.898 74.7117ZM315.512 66.6098C314.921 66.5003 314.288 66.4443 313.63 66.4443C311.528 66.4443 309.904 67.2343 308.761 68.8248C307.769 70.225 307.27 71.995 307.27 74.1318V88.2325H301.297V69.822C301.297 66.7274 301.239 63.9045 301.124 61.3616H306.326L306.545 66.5031H306.71C307.343 64.7362 308.335 63.3105 309.696 62.2435C311.027 61.2832 312.464 60.8041 314.014 60.8041C314.565 60.8041 315.064 60.8433 315.507 60.9135L315.512 66.6098ZM342.225 73.5243C342.225 74.5941 342.154 75.4956 342.006 76.2324H324.087C324.155 78.8873 325.023 80.9205 326.687 82.3208C328.197 83.57 330.15 84.1971 332.548 84.1971C335.201 84.1971 337.621 83.7771 339.798 82.9285L340.734 87.0705C338.19 88.1795 335.187 88.7312 331.722 88.7312C327.553 88.7312 324.281 87.5043 321.899 85.0569C319.524 82.6064 318.333 79.313 318.333 75.1878C318.333 71.138 319.44 67.7636 321.656 65.0723C323.976 62.199 327.11 60.762 331.055 60.762C334.93 60.762 337.862 62.1987 339.854 65.0723C341.432 67.3491 342.225 70.1721 342.225 73.5243ZM336.529 71.9756C336.571 70.2029 336.179 68.6766 335.369 67.3855C334.335 65.722 332.744 64.8931 330.612 64.8931C328.659 64.8931 327.068 65.7024 325.858 67.3267C324.863 68.6178 324.272 70.1693 324.09 71.97L336.529 71.9756Z" fill="white"/>
<path d="M136.566 37.6243H133.436L131.724 32.2445H125.771L124.138 37.6243H121.093L126.993 19.3061H130.634L136.566 37.6243ZM131.209 29.9873L129.66 25.204C129.497 24.7139 129.197 23.5741 128.735 21.7537H128.679C128.489 22.5407 128.217 23.6833 127.808 25.204L126.287 29.9873H131.209ZM151.318 24.417L146.315 37.6243H143.46L138.619 24.417H141.773L144.031 31.4016C144.412 32.5694 144.737 33.684 144.981 34.7426H145.062C145.281 33.7932 145.606 32.6786 146.012 31.4016L148.242 24.417H151.318ZM161.969 37.6243L161.751 36.1034H161.669C160.773 37.3273 159.467 37.9238 157.809 37.9238C155.444 37.9238 153.758 36.2659 153.758 34.0366C153.758 30.7768 156.585 29.0909 161.479 29.0909V28.8472C161.479 27.1081 160.554 26.2372 158.733 26.2372C157.428 26.2372 156.285 26.5648 155.282 27.2173L154.685 25.2878C155.909 24.526 157.431 24.1452 159.226 24.1452C162.678 24.1452 164.42 25.9655 164.42 29.609V34.4735C164.42 35.8066 164.476 36.84 164.611 37.6269L161.969 37.6243ZM161.56 31.0459C158.297 31.0459 156.666 31.8356 156.666 33.7092C156.666 35.0955 157.509 35.7732 158.678 35.7732C160.173 35.7732 161.56 34.6334 161.56 33.0847V31.0459ZM170.959 22.241C169.982 22.241 169.22 21.4793 169.22 20.4739C169.22 19.4685 170.007 18.7348 171.015 18.7348C172.021 18.7348 172.836 19.4685 172.809 20.4739C172.809 21.5353 172.049 22.241 170.959 22.241ZM172.483 37.6243H169.547V24.417H172.483V37.6243ZM180.636 37.6243H177.7V18.3567H180.636V37.6243ZM193.114 37.6243L192.895 36.1034H192.814C191.918 37.3273 190.612 37.9238 188.954 37.9238C186.589 37.9238 184.903 36.2659 184.903 34.0366C184.903 30.7768 187.729 29.0909 192.623 29.0909V28.8472C192.623 27.1081 191.699 26.2372 189.878 26.2372C188.572 26.2372 187.429 26.5648 186.426 27.2173L185.827 25.285C187.051 24.5232 188.573 24.1424 190.368 24.1424C193.82 24.1424 195.562 25.9627 195.562 29.6062V34.4707C195.562 35.8038 195.621 36.8372 195.75 37.6241H193.114V37.6243ZM192.705 31.0459C189.441 31.0459 187.811 31.8356 187.811 33.7092C187.811 35.0955 188.654 35.7732 189.822 35.7732C191.318 35.7732 192.705 34.6334 192.705 33.0847V31.0459ZM207.458 37.924C205.584 37.924 204.199 37.1343 203.303 35.5856H203.244L203.076 37.6243H200.574C200.655 36.5657 200.683 35.3671 200.683 34.0649V18.3567H203.622V26.3494H203.678C204.549 24.8819 205.959 24.1482 207.892 24.1482C211.074 24.1482 213.304 26.8675 213.304 30.8331C213.304 34.933 210.828 37.924 207.458 37.924ZM206.861 26.453C205.172 26.453 203.625 27.9205 203.625 29.9593V32.2697C203.625 34.0901 205.015 35.5856 206.811 35.5856C209.01 35.5856 210.318 33.7932 210.318 30.9395C210.315 28.2762 208.954 26.453 206.861 26.453ZM220.58 37.6243H217.647V18.3567H220.58V37.6243ZM236.563 31.7264H227.749C227.808 34.2273 229.461 35.6388 231.909 35.6388C233.215 35.6388 234.411 35.4203 235.47 35.0143L235.927 37.053C234.677 37.5963 233.209 37.868 231.497 37.868C227.362 37.868 224.917 35.2579 224.917 31.2111C224.917 27.1616 227.421 24.1174 231.167 24.1174C234.537 24.1174 236.661 26.6183 236.661 30.3962C236.672 30.9115 236.647 31.3736 236.563 31.7264ZM233.87 29.6344C233.87 27.5956 232.836 26.1562 230.959 26.1562C229.273 26.1562 227.945 27.6236 227.749 29.6344H233.87ZM254.358 37.924C250.497 37.924 247.995 35.0423 247.995 31.1299C247.995 27.0523 250.55 24.1454 254.579 24.1454C258.38 24.1454 260.941 26.8899 260.941 30.9143C260.941 35.0423 258.302 37.924 254.358 37.924ZM254.47 26.2906C252.349 26.2906 250.991 28.2734 250.991 31.0459C250.991 33.7652 252.377 35.748 254.442 35.748C256.507 35.748 257.89 33.628 257.89 30.9899C257.893 28.3014 256.534 26.2906 254.47 26.2906ZM276.725 37.6243H273.792V30.0405C273.792 27.7049 272.895 26.5342 271.128 26.5342C269.388 26.5342 268.189 28.0297 268.189 29.7689V37.6243H265.256V28.1922C265.256 27.0243 265.225 25.7725 265.147 24.4142H267.73L267.867 26.453H267.948C268.732 25.0416 270.341 24.1426 272.134 24.1426C274.904 24.1426 276.725 26.2626 276.725 29.7128V37.6243H276.725ZM295.935 26.6183H292.705V33.0315C292.705 34.6642 293.274 35.4791 294.414 35.4791C294.932 35.4791 295.369 35.4231 295.719 35.3419L295.801 37.5711C295.229 37.7898 294.464 37.8988 293.52 37.8988C291.206 37.8988 289.825 36.6218 289.825 33.2779V26.6183H287.897V24.417H289.825V21.9974L292.705 21.1264V24.4142H295.935V26.6183ZM311.484 37.6243H308.545V30.0965C308.545 27.7329 307.648 26.537 305.881 26.537C304.359 26.537 302.947 27.5704 302.947 29.6624V37.6243H300.009V18.3567H302.947V26.2906H303.003C303.928 24.8511 305.261 24.1426 306.973 24.1426C309.772 24.1426 311.484 26.3158 311.484 29.7689V37.6243ZM326.486 31.7264H317.675C317.731 34.2273 319.384 35.6388 321.833 35.6388C323.141 35.6388 324.334 35.4203 325.393 35.0143L325.853 37.053C324.603 37.5963 323.132 37.868 321.421 37.868C317.286 37.868 314.84 35.2579 314.84 31.2111C314.84 27.1616 317.345 24.1174 321.09 24.1174C324.461 24.1174 326.584 26.6183 326.584 30.3962C326.595 30.9115 326.567 31.3736 326.486 31.7264ZM323.793 29.6344C323.793 27.5956 322.762 26.1562 320.885 26.1562C319.196 26.1562 317.868 27.6236 317.675 29.6344H323.793Z" fill="white"/>
</g>
<defs>
<clipPath id="clip0_8997_31923">
<rect width="378" height="112" fill="white"/>
</clipPath>
</defs>
</svg>