<svg width="387" height="116" viewBox="0 0 387 116" fill="none" xmlns="http://www.w3.org/2000/svg">
<rect width="387" height="116" fill="#E5E5E5"/>
<path d="M372.593 115.058H14.3305C6.44881 115.058 0 108.586 0 100.675V14.3823C0 6.47198 6.44869 0 14.3305 0H372.592C380.474 0 386.923 6.47198 386.923 14.3823V100.675C386.923 108.586 380.474 115.058 372.592 115.058" fill="black"/>
<path d="M372.593 0H14.3305C6.44881 0 0 6.47198 0 14.3823V100.675C0 108.586 6.44869 115.058 14.3305 115.058H372.592C380.474 115.058 386.923 108.586 386.923 100.675V14.3823C386.923 6.47198 380.474 0 372.592 0H372.593ZM372.592 2.30108C379.23 2.30108 384.63 7.72154 384.63 14.3823V100.675C384.63 107.337 379.23 112.758 372.592 112.758H14.3305C7.69383 112.758 2.2929 107.337 2.2929 100.675V14.3823C2.2929 7.72154 7.6937 2.30121 14.3305 2.30121H372.592" fill="#A6A6A6"/>
<path d="M135.906 29.4645C135.906 31.8745 135.195 33.7935 133.771 35.2251C132.153 36.9274 130.045 37.7792 127.453 37.7792C124.971 37.7792 122.86 36.9163 121.125 35.188C119.386 33.4611 118.519 31.3195 118.519 28.7644C118.519 26.2081 119.386 24.0679 121.125 22.3395C122.86 20.6126 124.971 19.7484 127.453 19.7484C128.684 19.7484 129.863 19.9902 130.983 20.4722C132.102 20.9554 133 21.5969 133.672 22.4002L132.161 23.9182C131.022 22.553 129.455 21.871 127.453 21.871C125.643 21.871 124.077 22.5093 122.756 23.7868C121.435 25.0656 120.775 26.7239 120.775 28.7644C120.775 30.805 121.435 32.4632 122.756 33.7421C124.077 35.0196 125.642 35.6578 127.453 35.6578C129.373 35.6578 130.974 35.0161 132.256 33.7308C133.088 32.8935 133.569 31.7297 133.698 30.2351H127.453V28.1621H135.786C135.866 28.6129 135.906 29.0454 135.906 29.4645" fill="white"/>
<path d="M135.906 29.4646H135.619C135.617 31.8195 134.932 33.6486 133.568 35.0218L133.565 35.0241L133.564 35.0264C131.997 36.67 129.984 37.4881 127.453 37.4916C125.037 37.4881 123.015 36.6611 121.326 34.9847C119.642 33.3049 118.809 31.2542 118.805 28.7644C118.809 26.2734 119.642 24.2239 121.326 22.5453C123.015 20.8677 125.037 20.0396 127.453 20.0361C128.647 20.0361 129.785 20.2701 130.87 20.7362C131.956 21.206 132.813 21.8216 133.453 22.5859L133.672 22.4002L133.47 22.1969L131.958 23.7159L132.161 23.9182L132.381 23.7341C131.19 22.3014 129.517 21.5791 127.453 21.5834C125.575 21.581 123.924 22.2543 122.558 23.5803C121.179 24.9105 120.486 26.6622 120.488 28.7644C120.486 30.8668 121.179 32.6183 122.558 33.9487C123.924 35.2746 125.575 35.9478 127.453 35.9454C129.437 35.9489 131.127 35.2735 132.458 33.9342C133.347 33.0396 133.851 31.8005 133.983 30.2598L134.01 29.9475H127.739V28.4498H135.786V28.1621L135.504 28.2127C135.582 28.6488 135.619 29.0633 135.619 29.4646H136.192C136.192 29.0273 136.152 28.578 136.068 28.1107L136.025 27.8745H127.166V30.5228H133.698V30.2352L133.412 30.2105C133.286 31.6578 132.827 32.7477 132.053 33.5276C130.822 34.759 129.31 35.3667 127.453 35.3702C125.71 35.3678 124.231 34.7656 122.956 33.5353C121.693 32.3094 121.065 30.7442 121.061 28.7644C121.065 26.7846 121.693 25.2195 122.956 23.9936C124.231 22.7633 125.71 22.161 127.453 22.1586C129.391 22.1633 130.854 22.8059 131.941 24.1037L132.143 24.3441L133.875 22.6037L134.061 22.4173L133.892 22.2159C133.187 21.3734 132.249 20.7047 131.096 20.2083C129.941 19.7103 128.721 19.4608 127.453 19.4608C124.905 19.4586 122.706 20.3575 120.922 22.1363C119.132 23.9116 118.23 26.1431 118.232 28.7644C118.23 31.3845 119.132 33.6173 120.924 35.3937C122.706 37.1713 124.905 38.0692 127.453 38.0668C130.106 38.0692 132.307 37.1847 133.978 35.424L133.771 35.2251L133.973 35.4286C135.458 33.9398 136.194 31.9285 136.192 29.4646H135.906H135.906ZM149.117 22.2553H141.285V27.7275H148.348V29.8013H141.285V35.2735H149.117V37.3937H139.077V20.1351H149.117V22.2553" fill="white"/>
<path d="M149.116 22.2553V21.9676H140.999V28.0151H148.061V29.5128L140.998 29.5136V35.5611H148.83V37.106H139.364V20.4227H148.83V22.2553H149.116V21.9676V22.2553H149.403V19.8474H138.791V37.6813H149.403V34.9858H141.572V30.0889H148.634V27.4398H141.572V22.5429H149.403V22.2553H149.116V22.2553ZM158.435 37.3938H156.223V22.2551H151.42V20.1349H163.238V22.2551H158.435V37.3935" fill="white"/>
<path d="M158.435 37.3938V37.106H156.51V21.9676H151.707V20.4228H162.951V21.9676H158.148V37.3937H158.435V37.106V37.3937H158.721V22.5429H163.524V19.8474H151.134V22.5428H155.937V37.6812H158.721V37.3935H158.435V37.3938ZM171.788 37.3938V20.1349H173.997V37.3935H171.788" fill="white"/>
<path d="M171.788 37.3938H172.074V20.4227H173.71V37.106H171.788V37.3937H172.074H171.788V37.6813H174.283V19.8474H171.501V37.6813H171.788V37.3937V37.3938ZM183.798 37.3938H181.587V22.2551H176.784V20.1349H188.602V22.2551H183.798V37.3935" fill="white"/>
<path d="M183.799 37.3938V37.1061H181.874V21.9677H177.071V20.4228H188.315V21.9677H183.512V37.3937H183.799V37.1061V37.3937H184.085V22.5429H188.888V19.8474H176.498V22.5428H181.301V37.6812H184.085V37.3936H183.799V37.3938ZM199.994 33.7186C201.267 35.0117 202.825 35.6577 204.666 35.6577C206.508 35.6577 208.066 35.0117 209.337 33.7186C210.611 32.4253 211.249 30.7722 211.249 28.7644C211.249 26.7568 210.611 25.1036 209.337 23.8103C208.066 22.5171 206.508 21.871 204.666 21.871C202.825 21.871 201.267 22.5171 199.994 23.8103C198.724 25.1036 198.086 26.7566 198.086 28.7644C198.086 30.7722 198.724 32.4253 199.994 33.7186ZM210.972 35.1633C209.281 36.9082 207.179 37.7792 204.666 37.7792C202.152 37.7792 200.05 36.9082 198.363 35.1633C196.671 33.4205 195.83 31.287 195.83 28.7644C195.83 26.2417 196.671 24.1079 198.363 22.3654C200.05 20.6202 202.152 19.7484 204.666 19.7484C207.165 19.7484 209.262 20.6249 210.961 22.3767C212.657 24.1284 213.505 26.2575 213.505 28.7644C213.505 31.287 212.659 33.4205 210.972 35.1633Z" fill="white"/>
<path d="M199.994 33.7186L199.79 33.9208C201.111 35.2657 202.758 35.9489 204.666 35.9455C206.574 35.9489 208.223 35.2657 209.541 33.9208C210.87 32.5745 211.538 30.8329 211.536 28.7644C211.538 26.696 210.87 24.9543 209.541 23.6081C208.223 22.2631 206.574 21.58 204.666 21.5834C202.758 21.58 201.111 22.2631 199.79 23.6081C198.465 24.9543 197.795 26.696 197.799 28.7644C197.795 30.8328 198.465 32.5745 199.79 33.9208L199.994 33.7186L200.198 33.5163C198.982 32.2746 198.374 30.7127 198.372 28.7644C198.374 26.8163 198.982 25.2544 200.198 24.0126C201.425 22.7711 202.891 22.1621 204.666 22.1588C206.441 22.1621 207.91 22.7711 209.133 24.0126C210.352 25.2544 210.959 26.8163 210.962 28.7644C210.959 30.7126 210.352 32.2746 209.133 33.5163C207.91 34.7578 206.441 35.3667 204.666 35.3701C202.891 35.3667 201.425 34.7578 200.198 33.5163L199.994 33.7186ZM210.972 35.1634L210.767 34.9635C209.123 36.6534 207.114 37.4882 204.666 37.4916C202.218 37.4881 200.208 36.6534 198.568 34.9635L198.56 34.9544L198.568 34.9635C196.928 33.2678 196.119 31.2229 196.116 28.7644C196.119 26.3059 196.928 24.261 198.568 22.5655C200.208 20.8755 202.218 20.0396 204.666 20.0362C207.098 20.0396 209.103 20.879 210.756 22.5777C212.401 24.2812 213.215 26.3228 213.219 28.7644C213.215 31.2229 212.404 33.2678 210.767 34.9635L210.972 35.1634L211.178 35.3632C212.915 33.5724 213.794 31.3509 213.792 28.7644C213.794 26.1926 212.912 23.9757 211.166 22.1769C209.42 20.3709 207.232 19.4577 204.666 19.4608C202.087 19.4577 199.893 20.3666 198.157 22.1656V22.1643C196.416 23.9565 195.541 26.1779 195.543 28.7644C195.541 31.3509 196.416 33.5724 198.157 35.3644L198.165 35.3725L198.157 35.3632C199.893 37.1622 202.087 38.0692 204.666 38.0668C207.245 38.0692 209.439 37.1622 211.178 35.3632L210.972 35.1634V35.1634ZM216.606 37.3938V20.135H219.296L227.653 33.561H227.749L227.653 30.235V20.135H229.865V37.3936H227.558L218.814 23.3169H218.719L218.814 26.6441V37.3936H216.607" fill="white"/>
<path d="M216.606 37.3938H216.893V20.4227H219.137L227.494 33.8487H228.043L227.94 30.2308V20.4228H229.578V37.106H227.717L218.973 23.0294H218.425L218.527 26.6488V37.106H216.606V37.3937H216.893H216.606V37.6813H219.101V26.6396L219.006 23.3092L218.719 23.317V23.6046H218.814V23.317L218.571 23.4699L227.399 37.6813H230.151V19.8474H227.367V30.2385L227.462 33.5688L227.748 33.5611V33.2734H227.653V33.5611L227.896 33.4084L219.454 19.8474H216.32V37.6813H216.607V37.3937L216.606 37.3938ZM306.489 86.2931H311.837V50.3343H306.489L306.489 86.2931ZM354.659 63.2875L348.529 78.8775H348.345L341.983 63.2874H336.222L345.763 85.0773L340.323 97.1978H345.903L360.607 63.2874L354.659 63.2875ZM324.33 82.209C322.576 82.209 320.134 81.3302 320.134 79.155C320.134 76.3795 323.178 75.3156 325.803 75.3156C328.157 75.3156 329.26 75.8244 330.69 76.5191C330.275 79.8493 327.417 82.209 324.33 82.209V82.209ZM324.975 62.5008C321.103 62.5008 317.093 64.213 315.434 68.0065L320.18 69.9953C321.195 68.0065 323.084 67.3581 325.067 67.3581C327.833 67.3581 330.644 69.0244 330.69 71.9852V72.3549C329.721 71.7997 327.649 70.9672 325.113 70.9672C319.997 70.9672 314.786 73.7885 314.786 79.0627C314.786 83.8742 318.982 86.974 323.683 86.974C327.28 86.974 329.26 85.3549 330.507 83.4584H330.69V86.2337H335.852V72.4468C335.852 66.0638 331.106 62.5008 324.975 62.5008V62.5008ZM291.923 67.6647H284.317V55.339H291.923C295.922 55.339 298.192 58.6613 298.192 61.5017C298.192 64.2884 295.922 67.6647 291.923 67.6647ZM291.786 50.3343H278.971V86.2931H284.317V72.6695H291.786C297.713 72.6695 303.54 68.3626 303.54 61.5017C303.54 54.6411 297.713 50.3343 291.786 50.3343V50.3343ZM221.907 82.2156C218.213 82.2156 215.119 79.1111 215.119 74.8469C215.119 70.5381 218.213 67.3863 221.907 67.3863C225.555 67.3863 228.418 70.538 228.418 74.8469C228.418 79.1111 225.555 82.2156 221.908 82.2156H221.907ZM228.048 65.301H227.864C226.663 63.8647 224.354 62.5672 221.445 62.5672C215.35 62.5672 209.764 67.9424 209.764 74.8469C209.764 81.7056 215.35 87.0348 221.445 87.0348C224.354 87.0348 226.663 85.7369 227.864 84.2549H228.048V86.0156C228.048 90.6967 225.555 93.199 221.538 93.199C218.26 93.199 216.228 90.8348 215.396 88.8426L210.733 90.7888C212.072 94.0325 215.628 98.0182 221.538 98.0182C227.818 98.0182 233.128 94.3101 233.128 85.2741V63.3087H228.048V65.301ZM236.821 86.2931H242.177V50.333H236.821V86.2931ZM250.073 74.4302C249.935 69.703 253.721 67.294 256.445 67.294C258.571 67.294 260.37 68.3592 260.969 69.8898L250.073 74.4302ZM266.696 70.3525C265.681 67.6176 262.586 62.5672 256.26 62.5672C249.981 62.5672 244.763 67.5255 244.763 74.8009C244.763 81.6596 249.935 87.0348 256.86 87.0348C262.448 87.0348 265.681 83.6054 267.02 81.6132L262.864 78.8322C261.48 80.8716 259.585 82.2156 256.86 82.2156C254.136 82.2156 252.198 80.9639 250.95 78.5086L267.249 71.7424L266.696 70.3525ZM136.838 66.3209V71.5109H149.213C148.843 74.4302 147.874 76.5616 146.396 78.0447C144.596 79.8526 141.779 81.8448 136.838 81.8448C129.219 81.8448 123.263 75.6817 123.263 68.0355C123.263 60.3895 129.219 54.2255 136.838 54.2255C140.948 54.2255 143.948 55.8478 146.165 57.9331L149.813 54.2726C146.719 51.3061 142.61 49.0356 136.838 49.0356C126.403 49.0356 117.63 57.5625 117.63 68.0355C117.63 78.5086 126.403 87.0348 136.838 87.0348C142.472 87.0348 146.719 85.182 150.044 81.7056C153.461 78.2762 154.523 73.4571 154.523 69.5649C154.523 68.3592 154.431 67.248 154.245 66.3209H136.838ZM168.591 82.2156C164.897 82.2156 161.711 79.1569 161.711 74.8009C161.711 70.3985 164.897 67.3863 168.591 67.3863C172.285 67.3863 175.471 70.3985 175.471 74.8009C175.471 79.1571 172.285 82.2156 168.591 82.2156ZM168.591 62.5672C161.849 62.5672 156.354 67.7108 156.354 74.8009C156.354 81.8448 161.849 87.0348 168.591 87.0348C175.332 87.0348 180.827 81.8448 180.827 74.8009C180.827 67.7108 175.332 62.5672 168.591 62.5672ZM195.284 82.2156C191.591 82.2156 188.404 79.1569 188.404 74.8009C188.404 70.3985 191.591 67.3863 195.284 67.3863C198.978 67.3863 202.164 70.3985 202.164 74.8009C202.164 79.1571 198.978 82.2156 195.284 82.2156H195.284ZM195.284 62.5672C188.542 62.5672 183.048 67.7108 183.048 74.8009C183.048 81.8448 188.542 87.0348 195.284 87.0348C202.025 87.0348 207.52 81.8448 207.52 74.8009C207.52 67.7108 202.025 62.5672 195.284 62.5672H195.284Z" fill="white"/>
<path d="M30.1187 21.8935C29.1569 22.7644 28.5828 24.217 28.5828 26.1453V25.7094V89.3394V88.9203C28.5828 90.701 29.0752 92.0763 29.9092 92.9619L30.1221 93.1664V93.1673C30.7971 93.7787 31.6627 94.1033 32.6547 94.1022C33.624 94.1022 34.7146 93.7921 35.8656 93.1372L77.4675 69.4144L91.7575 61.2648C93.5724 60.2301 94.5913 58.8952 94.7616 57.5355V57.5299C94.5913 56.1671 93.5724 54.8333 91.7577 53.7984L77.4664 45.6499L35.8657 21.9271C34.7123 21.271 33.6209 20.9597 32.649 20.9597C31.6582 20.9597 30.7937 21.2833 30.119 21.8935H30.1187Z" fill="#00C1FF"/>
<path d="M30.1222 93.1664L29.9092 92.9619C29.0752 92.0763 28.5828 90.701 28.5828 88.9202V89.3394V25.7251V26.1453C28.5828 24.217 29.1569 22.7644 30.1187 21.8935L65.6291 57.5311L30.1222 93.1664Z" fill="url(#paint0_linear_5702_8348)"/>
<path d="M77.4673 69.4142L65.6289 57.5311L77.4663 45.6499L91.7574 53.7983C93.5722 54.8332 94.5911 56.167 94.7614 57.5299V57.5353C94.5911 58.895 93.5722 60.23 91.7574 61.2646L77.4674 69.4141" fill="url(#paint1_linear_5702_8348)"/>
<path d="M32.6547 94.1022C31.6628 94.1031 30.7972 93.7783 30.1223 93.1671V93.1662L65.6293 57.5309L77.4677 69.4141L35.8655 93.137C34.7146 93.792 33.624 94.1022 32.6547 94.1022Z" fill="url(#paint2_linear_5702_8348)"/>
<path d="M65.6292 57.5312L30.1187 21.8936C30.7937 21.2834 31.6581 20.9599 32.6488 20.9599C33.6207 20.9599 34.7122 21.271 35.8655 21.9272L77.4664 45.6501L65.6291 57.5312" fill="url(#paint3_linear_5702_8348)"/>
<path d="M32.6558 94.5236C31.6639 94.5236 30.7972 94.1988 30.1222 93.5876L30.121 93.5886C30.1182 93.5859 30.1153 93.5833 30.1121 93.5809L29.9275 93.3999C29.9217 93.3942 29.9163 93.3876 29.9094 93.381L30.1223 93.1673C30.7973 93.7786 31.6628 94.1033 32.6549 94.1021C33.6241 94.1021 34.7147 93.7921 35.8656 93.1371L77.4676 69.4142L77.7342 69.6818L77.4643 69.8357L35.8655 93.5572C34.8166 94.154 33.8189 94.4651 32.9177 94.517C32.8305 94.5212 32.7432 94.5234 32.6558 94.5234" fill="url(#paint4_linear_5702_8348)"/>
<path d="M29.9092 93.381C29.0752 92.4955 28.5828 91.1213 28.5828 89.3394V88.9203C28.5828 90.701 29.0752 92.0762 29.9092 92.9619L30.1221 93.1664L29.9092 93.381" fill="url(#paint5_linear_5702_8348)"/>
<path d="M77.7338 69.6818L77.4673 69.4142L91.7573 61.2647C93.5722 60.2301 94.5911 58.8951 94.7614 57.5354C94.7614 58.0344 94.6504 58.5333 94.43 59.0188C93.9855 59.9974 93.0945 60.9221 91.7574 61.685L77.7338 69.6819" fill="url(#paint6_linear_5702_8348)"/>
<path d="M94.7615 57.5302C94.5912 56.1672 93.5723 54.8335 91.7576 53.7985L77.4663 45.6501L77.7329 45.3825H77.734L91.7576 53.3794C93.7584 54.521 94.7603 56.0254 94.7615 57.5302" fill="url(#paint7_linear_5702_8348)"/>
<path d="M28.5828 26.1454V25.7058C28.5828 25.5474 28.587 25.3924 28.5951 25.2419V25.235C28.5951 25.233 28.5951 25.2308 28.5959 25.2284V25.2115C28.6822 23.6776 29.1569 22.4812 29.9092 21.6823L30.1187 21.8934C29.1569 22.7644 28.5828 24.2171 28.5828 26.1454Z" fill="url(#paint8_linear_5702_8348)"/>
<path d="M77.4662 45.65L35.8654 21.927C34.7121 21.2709 33.6208 20.9597 32.6489 20.9597C31.658 20.9597 30.7936 21.2833 30.1187 21.8935L29.9092 21.6822C29.9746 21.6127 30.0426 21.5457 30.113 21.4812C30.1152 21.4789 30.1187 21.4766 30.1209 21.4744C30.7905 20.8688 31.6458 20.5453 32.6277 20.5395H32.6489C33.6208 20.5395 34.7121 20.8508 35.8654 21.5071L77.7339 45.3815L77.7327 45.3824L77.4662 45.65" fill="url(#paint9_linear_5702_8348)"/>
<rect x="-8733" y="-5028" width="15232" height="15028" stroke="black" stroke-width="44"/>
<defs>
<linearGradient id="paint0_linear_5702_8348" x1="51.2761" y1="25.0528" x2="20.6132" y2="55.7041" gradientUnits="userSpaceOnUse">
<stop stop-color="#00A0FF"/>
<stop offset="0.00657" stop-color="#00A1FF"/>
<stop offset="0.2601" stop-color="#00BEFF"/>
<stop offset="0.5122" stop-color="#00D2FF"/>
<stop offset="0.7604" stop-color="#00DFFF"/>
<stop offset="1" stop-color="#00E3FF"/>
</linearGradient>
<linearGradient id="paint1_linear_5702_8348" x1="96.9725" y1="57.3257" x2="27.6215" y2="57.3257" gradientUnits="userSpaceOnUse">
<stop stop-color="#FFE000"/>
<stop offset="0.4087" stop-color="#FFBD00"/>
<stop offset="0.7754" stop-color="#FFA500"/>
<stop offset="1" stop-color="#FF9C00"/>
</linearGradient>
<linearGradient id="paint2_linear_5702_8348" x1="71.1825" y1="68.829" x2="19.2227" y2="120.39" gradientUnits="userSpaceOnUse">
<stop stop-color="#FF3A44"/>
<stop offset="1" stop-color="#C31162"/>
</linearGradient>
<linearGradient id="paint3_linear_5702_8348" x1="20.9666" y1="16.6102" x2="44.124" y2="39.6251" gradientUnits="userSpaceOnUse">
<stop stop-color="#32A071"/>
<stop offset="0.0685" stop-color="#2DA771"/>
<stop offset="0.4762" stop-color="#15CF74"/>
<stop offset="0.8009" stop-color="#06E775"/>
<stop offset="1" stop-color="#00F076"/>
</linearGradient>
<linearGradient id="paint4_linear_5702_8348" x1="71.1567" y1="77.0719" x2="29.544" y2="118.669" gradientUnits="userSpaceOnUse">
<stop stop-color="#CC2E36"/>
<stop offset="1" stop-color="#9C0E4E"/>
</linearGradient>
<linearGradient id="paint5_linear_5702_8348" x1="33.3133" y1="25.0528" x2="6.29979" y2="52.0569" gradientUnits="userSpaceOnUse">
<stop stop-color="#008DE0"/>
<stop offset="0.00657" stop-color="#008DE0"/>
<stop offset="0.2601" stop-color="#00A7E0"/>
<stop offset="0.5122" stop-color="#00B8E0"/>
<stop offset="0.7604" stop-color="#00C4E0"/>
<stop offset="1" stop-color="#00C7E0"/>
</linearGradient>
<linearGradient id="paint6_linear_5702_8348" x1="96.9726" y1="57.5328" x2="27.6213" y2="57.5328" gradientUnits="userSpaceOnUse">
<stop stop-color="#E0C500"/>
<stop offset="0.4087" stop-color="#E0A600"/>
<stop offset="0.7754" stop-color="#E09100"/>
<stop offset="1" stop-color="#E08900"/>
</linearGradient>
<linearGradient id="paint7_linear_5702_8348" x1="96.9727" y1="57.533" x2="27.6219" y2="57.533" gradientUnits="userSpaceOnUse">
<stop stop-color="#FFE840"/>
<stop offset="0.4087" stop-color="#FFCE40"/>
<stop offset="0.7754" stop-color="#FFBC40"/>
<stop offset="1" stop-color="#FFB540"/>
</linearGradient>
<linearGradient id="paint8_linear_5702_8348" x1="33.284" y1="25.1018" x2="7.26724" y2="49.9821" gradientUnits="userSpaceOnUse">
<stop stop-color="#40B8FF"/>
<stop offset="0.00657" stop-color="#40B9FF"/>
<stop offset="0.2601" stop-color="#40CEFF"/>
<stop offset="0.5122" stop-color="#40DDFF"/>
<stop offset="0.7604" stop-color="#40E7FF"/>
<stop offset="1" stop-color="#40EAFF"/>
</linearGradient>
<linearGradient id="paint9_linear_5702_8348" x1="20.9148" y1="24.1467" x2="39.4967" y2="42.7219" gradientUnits="userSpaceOnUse">
<stop stop-color="#65B895"/>
<stop offset="0.0685" stop-color="#62BD95"/>
<stop offset="0.4762" stop-color="#50DB97"/>
<stop offset="0.8009" stop-color="#44ED98"/>
<stop offset="1" stop-color="#40F498"/>
</linearGradient>
</defs>
</svg>